<svg xmlns="http://www.w3.org/2000/svg" viewBox="0 0 641.53 416.75"><defs><style>.cls-1{fill:#231f20;}.cls-2{fill:#222;}</style></defs><g id="Layer_2" data-name="Layer 2"><g id="Logo"><path class="cls-1" d="M132.07,286.94c-8.47-.47-13.73-5.77-14.27-7.45-.38-1.17.13-1.83,1.38-1.7,11.14.92,31.92-3.92,39-3.65,5.26.13,10,1.56,11.89,6.66.38,1,.13,2.09-1.5,2-6.13-.66-14,.65-21.28,2-.79,2.85-2.2,7.78-4.13,13.84-4.45,13.94-18.06,53.8-32.34,57.23-1.05,0-17.06.82-17.23.17-.25-.94,8.44-4.74,9.93-5.3,11-4.15,24.71-18.71,36.14-64.64A22.46,22.46,0,0,1,132.07,286.94Z"/><path class="cls-1" d="M181,356.38c-10.51,0-13.14-8-9.39-19.34,4.14-12.67,15-26.25,13-27.43-1.75-1.05-15.39,7.84-22.65,20.25a173.9,173.9,0,0,0-12.15,24.82c-.5,1.17-1.37,1.43-2.12.52-2-2.35-3.13-6-.5-13.85,4.38-13.06,30.41-59,40.55-72.24,1.13-1.56,2.38-1.43,3,.13,1.62,3.79,1.25,10.32-3.51,18.55-3,5.23-9.64,15.81-15,24.56,5.13-5.22,11.64-9.53,15-9.14,4.26.52,8.14,7.05,4.88,13.72-2.75,5.74-8.76,15.28-11.64,22.07-3.13,7.58-2.5,13.72,2.13,13.46,5.13-.26,16.31-12.9,20.19-21.26.5-1.18,0,0-.12,2.81-.07,1.58-1.29,4.47-3.17,8.39C196.06,349.84,188.43,356.38,181,356.38Z"/><path class="cls-1" d="M232.87,307c1.5-1.05,2.5-1.31,3.38-.26,2.37,2.74,5.38,8.49,1.75,12.8-5.63,6.66-11.77,14.89-13.77,21.68s-.5,11.89,3.13,12c4.88.26,13.15-9.82,17.16-19.23.5-1,.87.28,1.37,1.32.63,1.44-1.13,5.11-2.51,8.64-2.88,7.57-10.14,13.06-16.77,12.8-9-.39-12.64-9-9.52-18.81,2.76-8.62,10-17.9,15-23.91a26.41,26.41,0,0,1-14.65,5c-4.76,9.15-16.77,27.7-19.15,39.59-.25,1.17-1,1.83-2.13.65-3.63-3.92-3.63-9.93-.25-16.59,2.88-5.75,11.27-18,15.9-25-7.14-4.83,3.75-20.25,8.38-20.38,3.88-.13,2.88,7.45-.25,15.68C224,312.48,228.24,310.39,232.87,307Z"/><path class="cls-1" d="M243.38,337.17c3.13-9.53,11.39-24.95,16-31.74,1.13-1.57,2-2,3-.78,1.88,2.09,2.88,7.7-.13,14.23-2.62,5.75-7.88,14.64-10.51,21.17-3,7.57-2.75,12.67,1.25,12.41,5.63-.26,14.64-9.88,18.4-18.89.63-1.18.94.32,1.44,1.36,1,2.09-.94,4.46-2.44,7.73-3.76,8.1-11.64,13.58-18.65,13.58C242.26,356.24,239.88,347.88,243.38,337.17Zm27.92-34.09c-1.63,1.83-5.14,1.44-7-2a8.39,8.39,0,0,1,.62-9.67c2-2.22,5.64-.65,7.26,2.88A8.17,8.17,0,0,1,271.3,303.08Z"/><path class="cls-1" d="M289.32,345.4c0,1.44-.12,2.88-.25,4.44,4.76-3.26,12.77-11.75,16-18.55.75-1.56.76.45,1.39,2.28s-1.9,4.65-3,7.65-7.51,10.85-15,13.59c-2,13.19-7.51,27.69-13.52,35.53-4.26,5.49-7.39,6-11.14,2.61-3.13-2.74-6.89-7.84-5.51-18.94,3.5-29.13,32.29-79.16,46.19-100.85,1-1.56,2.63-1.43,3.13.13,1.5,4.45,1.12,10.06-4.26,19.6-5.13,8.88-13.77,23.64-20.53,37.36C287.57,331.82,289.45,336.78,289.32,345.4Zm-24.16,42.46c2.76,3.79,12.15-14.24,16.28-32.14a8.89,8.89,0,0,1-7.64-5.22C266.79,367.87,262.28,384.07,265.16,387.86Zm18.15-45.33c.13-4.83-1.12-8.88-2-8.49-1.25.52-2.38,7.44-2.5,10.45-.13,4.18,1,6.92,3.38,7.44A62.17,62.17,0,0,0,283.31,342.53Z"/><path class="cls-1" d="M310.23,300.07c-1.25-1.82-.5-2.74,1.37-2.61a68.7,68.7,0,0,0,10.39-.52c3.88-7.19,7.39-13.33,9.52-16.2,1.12-1.7,2.37-1.57,3,0,1.38,3.66,1.38,8-1.63,14.76,4.89-.13,6.76,2.22,7.76,3.92s.38,2.48-1.5,2.48a36,36,0,0,0-9.76.52c-4.88,8.76-12,21.43-16.77,32.4-4.14,9.54-2.76,17.64,2.5,17.9,5.63.26,15-11.25,19.61-21,.75-1.57,1.69.06,2.19,1.89.63,2.09-1.77,4.78-3,7.78-1.62,3.79-9.88,15.29-19.9,14.89-8.26-.26-14.89-9.92-8.88-24.95,2.62-6.53,7.88-17.5,13.26-27.82C314.11,303.47,311.23,301.51,310.23,300.07Z"/><path class="cls-1" d="M353.91,278.91c-.25-1,.13-1.57,1.38-1.57,10.39.53,23.66-3.26,30.67-3.26,5.38,0,8.63,2.61,10.26,6.66.38,1.05.13,2-1.5,2-9.39-.13-18.15,2.48-25.79,3.66-4.38,7.44-10.26,18-16.39,29.78a60,60,0,0,1,8.38-1c6.26-.4,9.39,2.35,10.52,6.27.37,1.17.12,2-1.38,2-6.26-.13-15.9,1.82-23,3.65-4.76,9.67-9.39,19.47-13,28.22-.5,1.31-1.25,1.31-2.13.52-2.38-2.09-3.63-6.27-1-14.37,3.76-11.49,16.9-37.1,27.91-55.78A9.53,9.53,0,0,1,353.91,278.91Z"/><path class="cls-1" d="M390.59,352.33c6,.52,17.14-10.5,22-20.56.88-1.69,1.59-.79,2.09,1,.62,2.09-1.58,5.54-2.95,8.67-1.75,3.92-10.89,14.76-20.91,14.5-8.63-.26-13.26-6.53-10.39-20.64,4.64-22.73,18.91-46.37,31.67-60.22,1.88-2.09,3.63-2.35,5.39-.65,3.63,3.4,4.38,8.23,2.87,14.37-3.88,16.07-17.9,31.74-29,39.32C386.34,341,385,351.8,390.59,352.33Zm25.54-66.23c-1.63-1.05-10.89,13.45-19.53,30.17-1.12,2.09-2.13,4.18-3,6.27C410.75,308,417.76,287.14,416.13,286.1Z"/><path class="cls-1" d="M410.62,337.17c3.13-9.53,11.39-24.95,16-31.74,1.13-1.57,2-2,3-.78,1.88,2.09,2.88,7.7-.13,14.23-2.63,5.75-7.88,14.64-10.51,21.17-3,7.57-2.75,12.67,1.25,12.41,5.63-.26,14.51-9.87,18.26-18.88.63-1.18,1.26-.36,1.76.69,1,2.09-1.12,5.12-2.62,8.39-3.75,8.1-11.64,13.58-18.65,13.58C409.5,356.24,407.12,347.88,410.62,337.17Zm27.92-34.09c-1.63,1.83-5.14,1.44-7-2a8.39,8.39,0,0,1,.62-9.67c2-2.22,5.63-.65,7.26,2.88A8.17,8.17,0,0,1,438.54,303.08Z"/><path class="cls-1" d="M486.73,334.69c.75-1.83,2.13-1.31,2.38,0a13.5,13.5,0,0,1-1.63,8.62c-4.76,9-13.27,13.33-22.28,14-8,.52-13.27-.65-17.65-4.83a13.81,13.81,0,0,1-4.26-8.76C437.41,354.94,431,368.26,425,382.76c-.5,1.18-1.38,1.44-2.13.26-1.88-2.74-2.5-6.4-.12-14.36,3.75-12.68,24.78-54.09,32.67-65.06,1.25-1.7,2.37-1.44,3,.13a14.58,14.58,0,0,1,.75,5.88c5.51-5,12.89-8.62,18.28-2.74,6,6.66,3.25,18.28-1.38,29-3.76,8.62-8.39,14.89-13.14,17.89C475.21,353,482.72,343.57,486.73,334.69Zm-36.68,15c4,3.4,12.15-6.14,18-18.68,4.88-10.45,6.26-21.29,3.13-22.86s-10.77,5-16.65,15c-1.38,2.35-2.75,4.7-4.26,7.44C447.17,338.87,446.55,346.71,450.05,349.71Z"/><path class="cls-1" d="M626.06,303.53l.15-.28c-2.25-1.32-222.14-130-282.28-167.06a78,78,0,0,1,5.49-11.79c16.52-29.21,53.95-60.89,35.27-98.85C377.28,10.5,360.29,2.81,345,.66a70.62,70.62,0,0,0-45.42,9.18,68.21,68.21,0,0,0-17.87,15.3c-4.09,4.93,6,8.52,10.15,3.56,11-13.28,23.63-17.62,40.47-18.48,16.59-.84,38.67,5.31,45.14,23.25,6.93,19.2-3.41,38.72-14.06,53.85-11.14,15.8-24,30.38-29.86,49.33q-52.69,27.25-105.27,54.73C170.45,221.56,112.63,251.7,55.33,282.9c-10.06,5.48-20.12,11-30.06,16.7-3.49,2-7.63,3.95-11.08,6.48-17.32,9.37-20.07,36.54-1,46.91,11,6,25.11,3.89,37.05,3.77l43.44-.42c6.27-.07,25.25-10.45,19-10.39-20.28.2-59.55.92-79.83.79-9.18-.06-19.26-1.76-22.56-12.11a16.36,16.36,0,0,1,5-17.33,4.55,4.55,0,0,0,2.82-1.45l.05-.05c.34-.25.67-.5,1-.73l1.23-.78a5.14,5.14,0,0,0,1.51-.86l.85-.64c4-2.48,8.16-4.82,12.27-7.15C48.15,298.2,61.42,291,74.7,283.86c37.89-20.43,76-40.48,114.09-60.47q54.54-28.62,109.19-57,16.49-8.57,33-17.1c2.71-1.4,5.5-2.69,8.14-4.23h.07c55.59,34.22,277,162.74,277.19,162.86,8.19,5.42,16.23,14.67,14.13,29.12-1.37,9.43-13.68,10.16-24.57,10-20.81-.38-88.95,2.78-89-2.64.09-3.85,0,0,.41-6.55.57-9-2-19.21-1.12-31.22.5-.92.87-1.7,1.37-2.49,1.63-3,2.26-4.44,1-5.75s-4-.65-6.76,2-3.88,5-4.51,10.06a256.19,256.19,0,0,1-14.4,22.47c-.12-1-.12-2.09-.25-3.13-.12-2.09-1.12-2.62-2.62-1.31-4.26,3.66-4.64,12.28-1.63,18.16a18.32,18.32,0,0,0,5.27,6.34c4.93,3.65,10.53,3.54,13.25,3.46,8.46-.27,111.89,6.53,125.5-2.58C648.55,343,641.31,312.19,626.06,303.53Zm-122.43,48c-4.13,1.31-7.76-4.05-9.64-11.62a230.26,230.26,0,0,0,13-21.17C507.51,329.2,509.39,349.71,503.63,351.54Z"/><path class="cls-2" d="M181.88,382.36c2.57.74,3.86,1.09,6.44,1.79a6.19,6.19,0,0,1,3.25,1.8,3,3,0,0,1,.57,2.84,4.19,4.19,0,0,1-1,1.79,4.1,4.1,0,0,1-1.73,1.09A6.27,6.27,0,0,1,187,392c.32,2.72.49,4.07.84,6.79l-1.49-.4c-.32-2.63-.47-3.95-.77-6.58l-1.11-.29c-2.09-.57-3.13-.86-5.21-1.45l-3,5.54L175,395.2C177.77,390.08,179.15,387.51,181.88,382.36Zm3.13,8.1a6.62,6.62,0,0,0,3.82.12,2.73,2.73,0,0,0,1.91-2,2.08,2.08,0,0,0-.42-2.06,5.45,5.45,0,0,0-2.62-1.33c-2-.55-3-.83-5.06-1.4-1.11,2.11-1.67,3.16-2.79,5.27C181.92,389.61,183,389.9,185,390.46Z"/><path class="cls-2" d="M195.74,401.1a5.72,5.72,0,0,1-3.45-2.1,4,4,0,0,1-.56-3.48,6.65,6.65,0,0,1,1.61-3,6,6,0,0,1,2.86-1.71,7.45,7.45,0,0,1,3.72,0,5.71,5.71,0,0,1,3.27,1.87,3.47,3.47,0,0,1,.63,3.11,7.34,7.34,0,0,1-.4,1.16c-.09.24-.14.36-.24.6-4-.93-6-1.42-10-2.43a4,4,0,0,0-.2.65,3.12,3.12,0,0,0,.41,2.67,4.48,4.48,0,0,0,2.68,1.6,6.41,6.41,0,0,0,2.76.13,3.49,3.49,0,0,0,2-1.06l1.27.3a4.64,4.64,0,0,1-2.61,1.72A7.81,7.81,0,0,1,195.74,401.1Zm6.52-4.67a5.05,5.05,0,0,0,.32-.89,2.57,2.57,0,0,0-.48-2.29,4.42,4.42,0,0,0-2.48-1.39,6.18,6.18,0,0,0-2.44-.13,4.51,4.51,0,0,0-2.06.84,4.7,4.7,0,0,0-1.48,1.75C197.08,395.2,198.8,395.62,202.26,396.43Z"/><path class="cls-2" d="M209.52,404.29a5,5,0,0,1-3.18-1.9,4.05,4.05,0,0,1-.57-3.37,6.68,6.68,0,0,1,1.57-3,6.47,6.47,0,0,1,2.88-1.81,7.46,7.46,0,0,1,3.77-.09,6,6,0,0,1,2.61,1.2,3.63,3.63,0,0,1,1.25,2.09c1-2.28,1.49-3.42,2.48-5.7l1.28.26c-2.29,5.35-3.45,8-5.81,13.35l-1.3-.27.87-2a6.47,6.47,0,0,1-2.72,1.25A7.34,7.34,0,0,1,209.52,404.29Zm7.2-4.33a5,5,0,0,0,.3-.93,3.24,3.24,0,0,0-.1-1.73,2.79,2.79,0,0,0-1.08-1.35,5.26,5.26,0,0,0-2-.8,6.18,6.18,0,0,0-3,0,5,5,0,0,0-2.37,1.44,5.52,5.52,0,0,0-1.34,2.61,3.17,3.17,0,0,0,.42,2.63,3.92,3.92,0,0,0,2.5,1.46,6.32,6.32,0,0,0,4-.45,4.38,4.38,0,0,0,2.32-2.19Z"/><path class="cls-2" d="M224.15,407.25a4.47,4.47,0,0,1-2.62-1.3,2.49,2.49,0,0,1-.62-2.28,6.67,6.67,0,0,1,.44-1.36c1-2.35,1.51-3.53,2.51-5.89l1.3.25-2.5,5.9a4.85,4.85,0,0,0-.33,1.05,1.87,1.87,0,0,0,.41,1.7,3.22,3.22,0,0,0,1.9.93,6.52,6.52,0,0,0,5.28-1.47,3.66,3.66,0,0,0,.83-1.23l2.22-5.47,1.29.23c-1.55,3.9-2.34,5.85-3.94,9.74l-1.3-.23.8-1.92A7,7,0,0,1,224.15,407.25Z"/><path class="cls-2" d="M240,410a5.78,5.78,0,0,1-3.63-1.81,4.1,4.1,0,0,1-.88-3.47,6.61,6.61,0,0,1,1.36-3.11,6,6,0,0,1,2.73-1.88,7.76,7.76,0,0,1,3.69-.27,5.54,5.54,0,0,1,3.09,1.38,3.69,3.69,0,0,1,1.15,2.68h-1.32a2.81,2.81,0,0,0-.84-2,4.09,4.09,0,0,0-2.3-1,5.8,5.8,0,0,0-2.83.21,4.86,4.86,0,0,0-2.19,1.52,5.4,5.4,0,0,0-1.15,2.64,3.26,3.26,0,0,0,.62,2.72,4.31,4.31,0,0,0,2.75,1.38,5.62,5.62,0,0,0,3-.26,3.91,3.91,0,0,0,2-1.72l1.32.19a4.84,4.84,0,0,1-2.49,2.43A7.14,7.14,0,0,1,240,410Z"/><path class="cls-2" d="M254.14,412a5.63,5.63,0,0,1-3.65-1.69,4,4,0,0,1-1-3.39,6.62,6.62,0,0,1,1.26-3.12,6,6,0,0,1,2.63-2,7.39,7.39,0,0,1,3.69-.39,5.68,5.68,0,0,1,3.44,1.48,3.53,3.53,0,0,1,1,3,8.81,8.81,0,0,1-.27,1.19l-.18.63c-4-.47-6.07-.73-10.12-1.27a4.73,4.73,0,0,0-.13.66,3.08,3.08,0,0,0,.71,2.6,4.37,4.37,0,0,0,2.82,1.29,6.44,6.44,0,0,0,2.75-.18A3.49,3.49,0,0,0,259,409.5l1.29.16a4.58,4.58,0,0,1-2.39,2A7.56,7.56,0,0,1,254.14,412Zm5.91-5.38a4.89,4.89,0,0,0,.22-.92,2.55,2.55,0,0,0-.73-2.22,4.38,4.38,0,0,0-2.61-1.1,6.1,6.1,0,0,0-2.43.15,4.57,4.57,0,0,0-1.94,1.07,4.89,4.89,0,0,0-1.27,1.91C254.79,406,256.54,406.19,260.05,406.6Z"/><path class="cls-2" d="M263.22,410.54l1.54.16c-1,1.52-1.46,2.28-2.45,3.79l-1.21-.14C262,412.83,262.38,412.06,263.22,410.54Z"/><path class="cls-2" d="M285.07,400.41c2.64.19,4,.27,6.61.42a6.18,6.18,0,0,1,3.52,1.09,3,3,0,0,1,1.13,2.66,4.07,4.07,0,0,1-.56,1.95,4.17,4.17,0,0,1-1.46,1.43,6.46,6.46,0,0,1-2.28.8c.87,2.59,1.31,3.88,2.2,6.47l-1.53-.08c-.84-2.52-1.26-3.78-2.09-6.29l-1.13-.05c-2.14-.13-3.21-.2-5.35-.35-.7,2.42-1.06,3.62-1.77,6l-1.38-.1C282.65,408.81,283.47,406,285.07,400.41Zm4.69,7.28a6.55,6.55,0,0,0,3.73-.67,2.77,2.77,0,0,0,1.44-2.38,2.09,2.09,0,0,0-.83-1.93,5.34,5.34,0,0,0-2.82-.77c-2.08-.11-3.12-.18-5.19-.32-.65,2.29-1,3.44-1.63,5.73Z"/><path class="cls-2" d="M302.34,415.89a5.72,5.72,0,0,1-3.78-1.34,4,4,0,0,1-1.25-3.29,6.63,6.63,0,0,1,1-3.23,6,6,0,0,1,2.43-2.26,7.21,7.21,0,0,1,3.62-.73,5.61,5.61,0,0,1,3.56,1.15,3.51,3.51,0,0,1,1.25,2.92,6.63,6.63,0,0,1-.15,1.22c-.05.25-.07.38-.12.63-4.07-.09-6.11-.15-10.18-.32a5.52,5.52,0,0,0-.07.67,3.13,3.13,0,0,0,.95,2.53,4.33,4.33,0,0,0,2.92,1,6.21,6.21,0,0,0,2.72-.43,3.51,3.51,0,0,0,1.71-1.45l1.29,0a4.54,4.54,0,0,1-2.19,2.22A7.64,7.64,0,0,1,302.34,415.89Zm5.39-5.91a4.57,4.57,0,0,0,.12-.94,2.52,2.52,0,0,0-.93-2.14,4.36,4.36,0,0,0-2.69-.85,6.18,6.18,0,0,0-2.4.37,4.68,4.68,0,0,0-1.84,1.25,5,5,0,0,0-1.08,2C302.44,409.84,304.2,409.89,307.73,410Z"/><path class="cls-2" d="M315.6,416.18a4.55,4.55,0,0,1-2.8-.83,2.51,2.51,0,0,1-1-2.14,6.39,6.39,0,0,1,.19-1.41c.58-2.5.87-3.74,1.43-6.24h1.32c-.56,2.5-.85,3.75-1.42,6.25a5,5,0,0,0-.14,1.1,1.88,1.88,0,0,0,.7,1.6,3.23,3.23,0,0,0,2,.58,5.94,5.94,0,0,0,3.55-1.12,5.85,5.85,0,0,0,1.36-1.26,3.52,3.52,0,0,0,.6-1.35c.5-2.31.74-3.46,1.22-5.77H324c-.84,4.12-1.27,6.17-2.16,10.28h-1.31c.17-.82.26-1.22.44-2A7,7,0,0,1,315.6,416.18Z"/><path class="cls-2" d="M331.1,416.08a7.09,7.09,0,0,1-3.76-.76,3.12,3.12,0,0,1-1.62-2.32l1.29,0a2.28,2.28,0,0,0,1.3,1.6,6.06,6.06,0,0,0,2.87.5,6.18,6.18,0,0,0,3-.64,1.75,1.75,0,0,0,1-1.65,1.23,1.23,0,0,0-.71-1.11,8.57,8.57,0,0,0-2.5-.6l-1.27-.18a7.08,7.08,0,0,1-2.88-.86,1.94,1.94,0,0,1-.88-1.69,2.56,2.56,0,0,1,1.31-2.31,7.41,7.41,0,0,1,3.78-.89,6.37,6.37,0,0,1,3.16.6,3.17,3.17,0,0,1,1.61,1.94l-1.21.22a2.21,2.21,0,0,0-1.2-1.36,5.39,5.39,0,0,0-2.42-.4,6.47,6.47,0,0,0-2.84.57,1.62,1.62,0,0,0-1,1.5,1.19,1.19,0,0,0,.66,1.06,6.41,6.41,0,0,0,2.19.58l1.39.19a7.93,7.93,0,0,1,3.1.86,2,2,0,0,1,.94,1.7,2.74,2.74,0,0,1-1.36,2.5A7.5,7.5,0,0,1,331.1,416.08Z"/><path class="cls-2" d="M344.78,415.62a5.64,5.64,0,0,1-3.88-1,4,4,0,0,1-1.52-3.18,6.68,6.68,0,0,1,.7-3.29,5.92,5.92,0,0,1,2.23-2.45,7.26,7.26,0,0,1,3.56-1,5.64,5.64,0,0,1,3.64.87,3.52,3.52,0,0,1,1.48,2.81,6.86,6.86,0,0,1-.05,1.22c0,.26,0,.38-.07.64-4.06.24-6.1.34-10.17.51a4.48,4.48,0,0,0,0,.67,3.08,3.08,0,0,0,1.15,2.44,4.31,4.31,0,0,0,3,.78,6.4,6.4,0,0,0,2.67-.65,3.59,3.59,0,0,0,1.59-1.59l1.29-.07a4.55,4.55,0,0,1-2,2.39A7.67,7.67,0,0,1,344.78,415.62Zm4.88-6.33a4.37,4.37,0,0,0,0-.94,2.54,2.54,0,0,0-1.1-2.06,4.29,4.29,0,0,0-2.75-.63,6.25,6.25,0,0,0-2.36.56,4.74,4.74,0,0,0-1.73,1.4,4.86,4.86,0,0,0-.91,2.1C344.38,409.58,346.14,409.49,349.66,409.29Z"/><path class="cls-2" d="M353.46,412.62l1.55-.1c-.7,1.66-1.05,2.49-1.76,4.15l-1.21.08C352.61,415.1,352.9,414.27,353.46,412.62Z"/><path class="cls-2" d="M378.8,412.94a7.46,7.46,0,0,1-4.69-.73,4,4,0,0,1-2-3.25,8.74,8.74,0,0,1,0-1.75c.38-3.33.56-5,.91-8.33l1.36-.15c-.34,3.34-.52,5-.88,8.34a7.5,7.5,0,0,0-.05,1.59,3.15,3.15,0,0,0,1.57,2.56,6,6,0,0,0,3.75.55,5.88,5.88,0,0,0,3.79-1.68,6.45,6.45,0,0,0,1.54-3.95c.3-3.46.45-5.18.73-8.64l1.36-.18c-.27,3.47-.41,5.2-.71,8.66a7.83,7.83,0,0,1-1.92,4.88A7.64,7.64,0,0,1,378.8,412.94Z"/><path class="cls-2" d="M390,400.82l1.28-.18c-.06.86-.08,1.28-.14,2.14a6.59,6.59,0,0,1,2.08-2.09,7.27,7.27,0,0,1,2.88-1.07,5,5,0,0,1,3.56.63,4.08,4.08,0,0,1,1.77,2.92,6.51,6.51,0,0,1-.33,3.4,6.24,6.24,0,0,1-2.05,2.74,7.51,7.51,0,0,1-3.55,1.43,5.88,5.88,0,0,1-2.91-.23,3.58,3.58,0,0,1-1.9-1.55c-.19,2.44-.28,3.66-.48,6.1l-1.35.18C389.35,409.47,389.58,406.59,390,400.82Zm5.24,8.89a6.17,6.17,0,0,0,2.83-1.1,4.9,4.9,0,0,0,1.7-2.21,5.46,5.46,0,0,0,.3-2.91,3.2,3.2,0,0,0-1.34-2.3,3.82,3.82,0,0,0-2.81-.47,6.26,6.26,0,0,0-3.53,1.8,4.41,4.41,0,0,0-1.42,2.84c0,.32,0,.48-.07.79a5.46,5.46,0,0,0,0,1,3.21,3.21,0,0,0,.67,1.59,2.73,2.73,0,0,0,1.49.9A5.44,5.44,0,0,0,395.24,409.71Z"/><path class="cls-2" d="M410.45,408.34a5.75,5.75,0,0,1-4-.55,4.08,4.08,0,0,1-2-3,6.49,6.49,0,0,1,.29-3.38,5.84,5.84,0,0,1,2-2.66,7.58,7.58,0,0,1,3.42-1.45,5.53,5.53,0,0,1,3.36.31,3.67,3.67,0,0,1,2,2.16l-1.25.43a2.8,2.8,0,0,0-1.45-1.63,4,4,0,0,0-2.5-.22,5.72,5.72,0,0,0-2.61,1.12,4.83,4.83,0,0,0-1.59,2.14,5.38,5.38,0,0,0-.23,2.87,3.23,3.23,0,0,0,1.47,2.37,4.18,4.18,0,0,0,3,.42,5.54,5.54,0,0,0,2.72-1.2,3.83,3.83,0,0,0,1.3-2.26l1.32-.25a4.86,4.86,0,0,1-1.58,3.1A7.07,7.07,0,0,1,410.45,408.34Z"/><path class="cls-2" d="M419.17,410.57a5.07,5.07,0,0,1-1.82,0c.06-.42.08-.63.13-1a5.36,5.36,0,0,0,1.54-.07,2.75,2.75,0,0,0,1.29-.57,4.26,4.26,0,0,0,.95-1.41c.34-.74.5-1.12.83-1.86-2.11-3.69-3.15-5.54-5.22-9.26l1.44-.28c1.78,3.26,2.69,4.89,4.5,8.14,1.75-4,2.61-5.95,4.27-9.93l1.48-.32c-2.29,5.34-3.47,8-5.91,13.33a9.2,9.2,0,0,1-1,1.78,3.54,3.54,0,0,1-1.09,1A4.43,4.43,0,0,1,419.17,410.57Z"/><path class="cls-2" d="M436.49,403.07a5.77,5.77,0,0,1-4.06-.33,4.06,4.06,0,0,1-2.1-2.89,6.46,6.46,0,0,1,.11-3.39,5.92,5.92,0,0,1,1.84-2.76,7.61,7.61,0,0,1,3.35-1.62,5.54,5.54,0,0,1,3.38.13,3.65,3.65,0,0,1,2.07,2.06l-1.23.5a2.73,2.73,0,0,0-1.53-1.56,4.07,4.07,0,0,0-2.52-.09,5.86,5.86,0,0,0-2.56,1.25,4.85,4.85,0,0,0-1.47,2.22,5.37,5.37,0,0,0-.09,2.88,3.24,3.24,0,0,0,1.59,2.3,4.25,4.25,0,0,0,3.06.25,5.57,5.57,0,0,0,2.67-1.33,3.89,3.89,0,0,0,1.19-2.33l1.3-.31a4.86,4.86,0,0,1-1.42,3.18A7.11,7.11,0,0,1,436.49,403.07Z"/><path class="cls-2" d="M444.3,386.22l1.27-.32c.24,5.81.34,8.73.51,14.55l-1.31.33C444.62,395,444.52,392,444.3,386.22Z"/><path class="cls-2" d="M455.69,398.29a5.73,5.73,0,0,1-4-.16,4,4,0,0,1-2.17-2.78,6.64,6.64,0,0,1,0-3.37,6,6,0,0,1,1.68-2.87,7.21,7.21,0,0,1,3.28-1.77,5.66,5.66,0,0,1,3.77.05,3.55,3.55,0,0,1,2.07,2.42,8.91,8.91,0,0,1,.21,1.21c0,.26,0,.38.07.64-4,1.12-5.94,1.66-9.91,2.69a2.92,2.92,0,0,0,.13.67,3.08,3.08,0,0,0,1.65,2.14,4.42,4.42,0,0,0,3.12.1,6.32,6.32,0,0,0,2.48-1.21,3.55,3.55,0,0,0,1.23-1.89l1.26-.35a4.62,4.62,0,0,1-1.46,2.77A7.74,7.74,0,0,1,455.69,398.29Zm3.46-7.23a4.31,4.31,0,0,0-.15-.93,2.5,2.5,0,0,0-1.53-1.78,4.4,4.4,0,0,0-2.84,0,6.49,6.49,0,0,0-2.21,1.06,4.76,4.76,0,0,0-1.85,4C454,392.48,455.72,392,459.15,391.06Z"/><path class="cls-2" d="M463.52,393.51l1.44-.42c.07.9.1,1.34.16,2.24l-1.44.42C463.62,394.85,463.58,394.4,463.52,393.51Z"/></g></g></svg>