<svg xmlns="http://www.w3.org/2000/svg" viewBox="0 0 641.53 395.08"><defs><style>.cls-1{fill:#231f20;}</style></defs><g id="Layer_2" data-name="Layer 2"><g id="Logo"><path class="cls-1" d="M132.07,286.94c-8.47-.47-13.73-5.77-14.27-7.45-.38-1.17.13-1.83,1.38-1.7,11.14.92,31.92-3.92,39-3.65,5.26.13,10,1.56,11.89,6.66.38,1,.13,2.09-1.5,2-6.13-.66-14,.65-21.28,2-.79,2.85-2.2,7.78-4.13,13.84-4.45,13.94-18.06,53.8-32.34,57.23-1.05,0-17.06.82-17.23.17-.25-.94,8.44-4.74,9.93-5.3,11-4.15,24.71-18.71,36.14-64.64A22.46,22.46,0,0,1,132.07,286.94Z"/><path class="cls-1" d="M181,356.38c-10.51,0-13.14-8-9.39-19.34,4.14-12.67,15-26.25,13-27.43-1.75-1.05-15.39,7.84-22.65,20.25a173.9,173.9,0,0,0-12.15,24.82c-.5,1.17-1.37,1.43-2.12.52-2-2.35-3.13-6-.5-13.85,4.38-13.06,30.41-59,40.55-72.24,1.13-1.56,2.38-1.43,3,.13,1.62,3.79,1.25,10.32-3.51,18.55-3,5.23-9.64,15.81-15,24.56,5.13-5.22,11.64-9.53,15-9.14,4.26.52,8.14,7.05,4.88,13.72-2.75,5.74-8.76,15.28-11.64,22.07-3.13,7.58-2.5,13.72,2.13,13.46,5.13-.26,16.31-12.9,20.19-21.26.5-1.18,0,0-.12,2.81-.07,1.58-1.29,4.47-3.17,8.39C196.06,349.84,188.43,356.38,181,356.38Z"/><path class="cls-1" d="M232.87,307c1.5-1.05,2.5-1.31,3.38-.26,2.37,2.74,5.38,8.49,1.75,12.8-5.63,6.66-11.77,14.89-13.77,21.68s-.5,11.89,3.13,12c4.88.26,13.15-9.82,17.16-19.23.5-1,.87.28,1.37,1.32.63,1.44-1.13,5.11-2.51,8.64-2.88,7.57-10.14,13.06-16.77,12.8-9-.39-12.64-9-9.52-18.81,2.76-8.62,10-17.9,15-23.91a26.41,26.41,0,0,1-14.65,5c-4.76,9.15-16.77,27.7-19.15,39.59-.25,1.17-1,1.83-2.13.65-3.63-3.92-3.63-9.93-.25-16.59,2.88-5.75,11.27-18,15.9-25-7.14-4.83,3.75-20.25,8.38-20.38,3.88-.13,2.88,7.45-.25,15.68C224,312.48,228.24,310.39,232.87,307Z"/><path class="cls-1" d="M243.38,337.17c3.13-9.53,11.39-24.95,16-31.74,1.13-1.57,2-2,3-.78,1.88,2.09,2.88,7.7-.13,14.23-2.62,5.75-7.88,14.64-10.51,21.17-3,7.57-2.75,12.67,1.25,12.41,5.63-.26,14.64-9.88,18.4-18.89.63-1.18.94.32,1.44,1.36,1,2.09-.94,4.46-2.44,7.73-3.76,8.1-11.64,13.58-18.65,13.58C242.26,356.24,239.88,347.88,243.38,337.17Zm27.92-34.09c-1.63,1.83-5.14,1.44-7-2a8.39,8.39,0,0,1,.62-9.67c2-2.22,5.64-.65,7.26,2.88A8.17,8.17,0,0,1,271.3,303.08Z"/><path class="cls-1" d="M289.32,345.4c0,1.44-.12,2.88-.25,4.44,4.76-3.26,12.77-11.75,16-18.55.75-1.56.76.45,1.39,2.28s-1.9,4.65-3,7.65-7.51,10.85-15,13.59c-2,13.19-7.51,27.69-13.52,35.53-4.26,5.49-7.39,6-11.14,2.61-3.13-2.74-6.89-7.84-5.51-18.94,3.5-29.13,32.29-79.16,46.19-100.85,1-1.56,2.63-1.43,3.13.13,1.5,4.45,1.12,10.06-4.26,19.6-5.13,8.88-13.77,23.64-20.53,37.36C287.57,331.82,289.45,336.78,289.32,345.4Zm-24.16,42.46c2.76,3.79,12.15-14.24,16.28-32.14a8.89,8.89,0,0,1-7.64-5.22C266.79,367.87,262.28,384.07,265.16,387.86Zm18.15-45.33c.13-4.83-1.12-8.88-2-8.49-1.25.52-2.38,7.44-2.5,10.45-.13,4.18,1,6.92,3.38,7.44A62.17,62.17,0,0,0,283.31,342.53Z"/><path class="cls-1" d="M310.23,300.07c-1.25-1.82-.5-2.74,1.37-2.61a68.7,68.7,0,0,0,10.39-.52c3.88-7.19,7.39-13.33,9.52-16.2,1.12-1.7,2.37-1.57,3,0,1.38,3.66,1.38,8-1.63,14.76,4.89-.13,6.76,2.22,7.76,3.92s.38,2.48-1.5,2.48a36,36,0,0,0-9.76.52c-4.88,8.76-12,21.43-16.77,32.4-4.14,9.54-2.76,17.64,2.5,17.9,5.63.26,15-11.25,19.61-21,.75-1.57,1.69.06,2.19,1.89.63,2.09-1.77,4.78-3,7.78-1.62,3.79-9.88,15.29-19.9,14.89-8.26-.26-14.89-9.92-8.88-24.95,2.62-6.53,7.88-17.5,13.26-27.82C314.11,303.47,311.23,301.51,310.23,300.07Z"/><path class="cls-1" d="M353.91,278.91c-.25-1,.13-1.57,1.38-1.57,10.39.53,23.66-3.26,30.67-3.26,5.38,0,8.63,2.61,10.26,6.66.38,1.05.13,2-1.5,2-9.39-.13-18.15,2.48-25.79,3.66-4.38,7.44-10.26,18-16.39,29.78a60,60,0,0,1,8.38-1c6.26-.4,9.39,2.35,10.52,6.27.37,1.17.12,2-1.38,2-6.26-.13-15.9,1.82-23,3.65-4.76,9.67-9.39,19.47-13,28.22-.5,1.31-1.25,1.31-2.13.52-2.38-2.09-3.63-6.27-1-14.37,3.76-11.49,16.9-37.1,27.91-55.78A9.53,9.53,0,0,1,353.91,278.91Z"/><path class="cls-1" d="M390.59,352.33c6,.52,17.14-10.5,22-20.56.88-1.69,1.59-.79,2.09,1,.62,2.09-1.58,5.54-2.95,8.67-1.75,3.92-10.89,14.76-20.91,14.5-8.63-.26-13.26-6.53-10.39-20.64,4.64-22.73,18.91-46.37,31.67-60.22,1.88-2.09,3.63-2.35,5.39-.65,3.63,3.4,4.38,8.23,2.87,14.37-3.88,16.07-17.9,31.74-29,39.32C386.34,341,385,351.8,390.59,352.33Zm25.54-66.23c-1.63-1.05-10.89,13.45-19.53,30.17-1.12,2.09-2.13,4.18-3,6.27C410.75,308,417.76,287.14,416.13,286.1Z"/><path class="cls-1" d="M410.62,337.17c3.13-9.53,11.39-24.95,16-31.74,1.13-1.57,2-2,3-.78,1.88,2.09,2.88,7.7-.13,14.23-2.63,5.75-7.88,14.64-10.51,21.17-3,7.57-2.75,12.67,1.25,12.41,5.63-.26,14.51-9.87,18.26-18.88.63-1.18,1.26-.36,1.76.69,1,2.09-1.12,5.12-2.62,8.39-3.75,8.1-11.64,13.58-18.65,13.58C409.5,356.24,407.12,347.88,410.62,337.17Zm27.92-34.09c-1.63,1.83-5.14,1.44-7-2a8.39,8.39,0,0,1,.62-9.67c2-2.22,5.63-.65,7.26,2.88A8.17,8.17,0,0,1,438.54,303.08Z"/><path class="cls-1" d="M486.73,334.69c.75-1.83,2.13-1.31,2.38,0a13.5,13.5,0,0,1-1.63,8.62c-4.76,9-13.27,13.33-22.28,14-8,.52-13.27-.65-17.65-4.83a13.81,13.81,0,0,1-4.26-8.76C437.41,354.94,431,368.26,425,382.76c-.5,1.18-1.38,1.44-2.13.26-1.88-2.74-2.5-6.4-.12-14.36,3.75-12.68,24.78-54.09,32.67-65.06,1.25-1.7,2.37-1.44,3,.13a14.58,14.58,0,0,1,.75,5.88c5.51-5,12.89-8.62,18.28-2.74,6,6.66,3.25,18.28-1.38,29-3.76,8.62-8.39,14.89-13.14,17.89C475.21,353,482.72,343.57,486.73,334.69Zm-36.68,15c4,3.4,12.15-6.14,18-18.68,4.88-10.45,6.26-21.29,3.13-22.86s-10.77,5-16.65,15c-1.38,2.35-2.75,4.7-4.26,7.44C447.17,338.87,446.55,346.71,450.05,349.71Z"/><path class="cls-1" d="M626.06,303.53l.15-.28c-2.25-1.32-222.14-130-282.28-167.06a78,78,0,0,1,5.49-11.79c16.52-29.21,53.95-60.89,35.27-98.85C377.28,10.5,360.29,2.81,345,.66a70.62,70.62,0,0,0-45.42,9.18,68.21,68.21,0,0,0-17.87,15.3c-4.09,4.93,6,8.52,10.15,3.56,11-13.28,23.63-17.62,40.47-18.48,16.59-.84,38.67,5.31,45.14,23.25,6.93,19.2-3.41,38.72-14.06,53.85-11.14,15.8-24,30.38-29.86,49.33q-52.69,27.25-105.27,54.73C170.45,221.56,112.63,251.7,55.33,282.9c-10.06,5.48-20.12,11-30.06,16.7-3.49,2-7.63,3.95-11.08,6.48-17.32,9.37-20.07,36.54-1,46.91,11,6,25.11,3.89,37.05,3.77l43.44-.42c6.27-.07,25.25-10.45,19-10.39-20.28.2-59.55.92-79.83.79-9.18-.06-19.26-1.76-22.56-12.11a16.36,16.36,0,0,1,5-17.33,4.55,4.55,0,0,0,2.82-1.45l.05-.05c.34-.25.67-.5,1-.73l1.23-.78a5.14,5.14,0,0,0,1.51-.86l.85-.64c4-2.48,8.16-4.82,12.27-7.15C48.15,298.2,61.42,291,74.7,283.86c37.89-20.43,76-40.48,114.09-60.47q54.54-28.62,109.19-57,16.49-8.57,33-17.1c2.71-1.4,5.5-2.69,8.14-4.23h.07c55.59,34.22,277,162.74,277.19,162.86,8.19,5.42,16.23,14.67,14.13,29.12-1.37,9.43-13.68,10.16-24.57,10-20.81-.38-88.95,2.78-89-2.64.09-3.85,0,0,.41-6.55.57-9-2-19.21-1.12-31.22.5-.92.87-1.7,1.37-2.49,1.63-3,2.26-4.44,1-5.75s-4-.65-6.76,2-3.88,5-4.51,10.06a256.19,256.19,0,0,1-14.4,22.47c-.12-1-.12-2.09-.25-3.13-.12-2.09-1.12-2.62-2.62-1.31-4.26,3.66-4.64,12.28-1.63,18.16a18.32,18.32,0,0,0,5.27,6.34c4.93,3.65,10.53,3.54,13.25,3.46,8.46-.27,111.89,6.53,125.5-2.58C648.55,343,641.31,312.19,626.06,303.53Zm-122.43,48c-4.13,1.31-7.76-4.05-9.64-11.62a230.26,230.26,0,0,0,13-21.17C507.51,329.2,509.39,349.71,503.63,351.54Z"/><path class="cls-1" d="M48.43,364.58h1.65v16.2h8.25v1.5h-9.9Z"/><path class="cls-1" d="M59.78,373.43a10.06,10.06,0,0,1,.68-3.73,8.81,8.81,0,0,1,1.87-2.93,8.45,8.45,0,0,1,2.89-1.94,10.18,10.18,0,0,1,7.42,0,8.45,8.45,0,0,1,2.89,1.94,8.83,8.83,0,0,1,1.88,2.93,10.75,10.75,0,0,1,0,7.47,8.92,8.92,0,0,1-1.88,2.95A8.41,8.41,0,0,1,72.64,382a10.32,10.32,0,0,1-7.42,0,8.41,8.41,0,0,1-2.89-1.92,8.89,8.89,0,0,1-1.87-2.95A10.11,10.11,0,0,1,59.78,373.43Zm1.65,0A8.8,8.8,0,0,0,62,376.5a7,7,0,0,0,1.5,2.48,6.88,6.88,0,0,0,2.36,1.65,8.36,8.36,0,0,0,6.22,0A6.92,6.92,0,0,0,74.41,379a7.66,7.66,0,0,0,1.5-2.48,9.35,9.35,0,0,0,0-6.15,7.61,7.61,0,0,0-1.5-2.47A6.92,6.92,0,0,0,72,366.23a8.36,8.36,0,0,0-6.22,0,6.88,6.88,0,0,0-2.36,1.65,7,7,0,0,0-1.5,2.47A8.86,8.86,0,0,0,61.43,373.43Z"/><path class="cls-1" d="M82.26,379a4.24,4.24,0,0,0,1.68,1.68,4.93,4.93,0,0,0,2.37.55,4.66,4.66,0,0,0,1.55-.25,4.06,4.06,0,0,0,1.26-.7,3.25,3.25,0,0,0,.85-1.09,3.18,3.18,0,0,0,.31-1.44,2.75,2.75,0,0,0-.39-1.52,3.15,3.15,0,0,0-1-1,7.61,7.61,0,0,0-1.47-.66L85.72,374A15.29,15.29,0,0,1,84,373.4a5.35,5.35,0,0,1-1.46-.91,4,4,0,0,1-1-1.41,5.05,5.05,0,0,1-.38-2.1,4.56,4.56,0,0,1,.46-2.09,4.4,4.4,0,0,1,1.25-1.52,5.54,5.54,0,0,1,1.81-.93,7.26,7.26,0,0,1,2.15-.31,7,7,0,0,1,2.69.51,5.12,5.12,0,0,1,2.14,1.71l-1.43,1a4.2,4.2,0,0,0-1.46-1.31,4.27,4.27,0,0,0-2-.44,5.42,5.42,0,0,0-1.52.21,3.69,3.69,0,0,0-1.27.63,3.08,3.08,0,0,0-.86,1,3.14,3.14,0,0,0-.32,1.48,2.87,2.87,0,0,0,.67,2,4.72,4.72,0,0,0,1.69,1.12,17.19,17.19,0,0,0,2.2.73,10.88,10.88,0,0,1,2.2.83,4.77,4.77,0,0,1,1.69,1.47,4.32,4.32,0,0,1,.67,2.58,4.83,4.83,0,0,1-.45,2.13,4.56,4.56,0,0,1-1.21,1.56,5.11,5.11,0,0,1-1.76,1,6.61,6.61,0,0,1-2.08.33,8.25,8.25,0,0,1-3.22-.61,5.88,5.88,0,0,1-2.53-2.07Z"/><path class="cls-1" d="M107.61,364.58h1.69l7.46,17.7h-1.85l-1.93-4.7h-9.37l-2,4.7H99.88Zm.77,1.8-4.12,9.7h8.12Z"/><path class="cls-1" d="M119.3,364.58h2.13l10.78,15.5h0v-15.5h1.65v17.7h-2.13L121,366.78H121v15.5H119.3Z"/><path class="cls-1" d="M153.36,381.13a11.65,11.65,0,0,1-3.22,1.24,15.9,15.9,0,0,1-3.38.36A9.78,9.78,0,0,1,143,382a8.46,8.46,0,0,1-2.88-1.92,8.92,8.92,0,0,1-1.88-2.95,10.75,10.75,0,0,1,0-7.47,8.83,8.83,0,0,1,1.88-2.93,8.51,8.51,0,0,1,2.88-1.94,9.59,9.59,0,0,1,3.72-.7,8.58,8.58,0,0,1,6.37,2.45l-1.2,1.25a5.39,5.39,0,0,0-1-.89,6.77,6.77,0,0,0-1.27-.7,8.61,8.61,0,0,0-1.44-.45,6.82,6.82,0,0,0-1.47-.16,7.82,7.82,0,0,0-3.12.6,7,7,0,0,0-2.36,1.65,7.28,7.28,0,0,0-1.5,2.47,9.35,9.35,0,0,0,0,6.15,7.32,7.32,0,0,0,1.5,2.48,7,7,0,0,0,2.36,1.65,7.82,7.82,0,0,0,3.12.6,15,15,0,0,0,2.67-.23,7,7,0,0,0,2.28-.82v-5.95h-4.25v-1.5h5.9Z"/><path class="cls-1" d="M158.21,364.58H169v1.5h-9.17v6.3h8.6v1.5h-8.6v6.9h9.57v1.5H158.21Z"/><path class="cls-1" d="M173,364.58h1.65v16.2h8.25v1.5H173Z"/><path class="cls-1" d="M185.53,364.58h10.83v1.5h-9.18v6.3h8.6v1.5h-8.6v6.9h9.58v1.5H185.53Z"/><path class="cls-1" d="M200.83,379a4.26,4.26,0,0,0,1.69,1.68,4.92,4.92,0,0,0,2.36.55,4.62,4.62,0,0,0,1.55-.25,4.06,4.06,0,0,0,1.26-.7,3.25,3.25,0,0,0,.85-1.09,3.18,3.18,0,0,0,.31-1.44,2.74,2.74,0,0,0-.38-1.52,3.18,3.18,0,0,0-1-1,7.25,7.25,0,0,0-1.46-.66l-1.68-.55a15.93,15.93,0,0,1-1.67-.63,5.35,5.35,0,0,1-1.46-.91,3.93,3.93,0,0,1-1-1.41,5,5,0,0,1-.39-2.1,4.4,4.4,0,0,1,1.71-3.61,5.59,5.59,0,0,1,1.82-.93,7.26,7.26,0,0,1,2.15-.31,7,7,0,0,1,2.68.51,5.06,5.06,0,0,1,2.14,1.71l-1.43,1a4.11,4.11,0,0,0-1.46-1.31,4.27,4.27,0,0,0-2-.44,5.42,5.42,0,0,0-1.52.21,3.73,3.73,0,0,0-1.26.63,3.11,3.11,0,0,0-.87,1,3.26,3.26,0,0,0-.32,1.48,2.87,2.87,0,0,0,.67,2,4.9,4.9,0,0,0,1.69,1.12,17.72,17.72,0,0,0,2.2.73,10.66,10.66,0,0,1,2.2.83,4.68,4.68,0,0,1,1.69,1.47,4.32,4.32,0,0,1,.68,2.58,4.83,4.83,0,0,1-.46,2.13,4.44,4.44,0,0,1-1.21,1.56,5,5,0,0,1-1.76,1,6.59,6.59,0,0,1-2.07.33,8.3,8.3,0,0,1-3.23-.61,5.86,5.86,0,0,1-2.52-2.07Z"/></g></g></svg>